<?xml version="1.0" encoding="UTF-8" standalone="no"?>
<!-- Created with Inkscape (http://www.inkscape.org/) -->

<svg
   width="210mm"
   height="297mm"
   viewBox="0 0 210 297"
   version="1.1"
   id="svg5"
   inkscape:version="1.1.2 (b8e25be8, 2022-02-05)"
   sodipodi:docname="round heart.svg"
   xmlns:inkscape="http://www.inkscape.org/namespaces/inkscape"
   xmlns:sodipodi="http://sodipodi.sourceforge.net/DTD/sodipodi-0.dtd"
   xmlns="http://www.w3.org/2000/svg"
   xmlns:svg="http://www.w3.org/2000/svg">
  <sodipodi:namedview
     id="namedview7"
     pagecolor="#ffffff"
     bordercolor="#666666"
     borderopacity="1.0"
     inkscape:pageshadow="2"
     inkscape:pageopacity="0.0"
     inkscape:pagecheckerboard="0"
     inkscape:document-units="mm"
     showgrid="false"
     inkscape:snap-nodes="true"
     inkscape:zoom="0.51758558"
     inkscape:cx="396.06977"
     inkscape:cy="451.13313"
     inkscape:window-width="1301"
     inkscape:window-height="685"
     inkscape:window-x="0"
     inkscape:window-y="25"
     inkscape:window-maximized="0"
     inkscape:current-layer="layer1" />
  <defs
     id="defs2" />
  <g
     inkscape:label="Layer 1"
     inkscape:groupmode="layer"
     id="layer1">
    <path
       id="path1747"
       style="fill:#4d4d4d;fill-rule:evenodd;stroke-width:14.2848;paint-order:markers fill stroke;stop-color:#000000"
       d="M 536.56836 303.57422 C 497.81151 303.19838 456.95272 341.74873 446.71094 388.67773 C 435.40966 336.89402 386.82978 295.3124 344.92969 304.97461 C 341.1987 304.96241 337.51006 305.13049 333.87109 305.47656 C 330.23212 305.82264 326.6428 306.34717 323.10938 307.04883 C 319.57595 307.75049 316.09796 308.62903 312.68359 309.68359 C 309.26923 310.73816 305.91849 311.96827 302.63672 313.37305 C 300.26099 314.38997 297.92224 315.46306 295.62109 316.58984 C 293.31995 317.71663 291.0567 318.89765 288.83203 320.12891 C 286.60737 321.36016 284.42167 322.64232 282.27539 323.97266 C 280.12911 325.30299 278.02108 326.68144 275.95508 328.10547 C 273.88908 329.5295 271.86467 330.99939 269.88086 332.51172 C 267.89705 334.02404 265.95441 335.57859 264.05469 337.17383 C 260.25523 340.3643 256.62553 343.71532 253.17383 347.20508 C 249.72212 350.69483 246.44812 354.32244 243.35938 358.06836 C 240.27063 361.81428 237.36683 365.67777 234.65625 369.63672 C 231.94567 373.59567 229.42854 377.65044 227.11133 381.7793 C 224.79412 385.90815 222.67816 390.11155 220.76953 394.36719 C 218.8609 398.62282 217.16063 402.93024 215.67578 407.26953 C 214.19094 411.60882 212.92085 415.97956 211.875 420.35938 C 210.30622 426.92909 209.23944 433.52094 208.70117 440.06055 C 208.52175 442.24042 208.40096 444.41434 208.33984 446.58008 C 208.27872 448.74582 208.27881 450.90261 208.33789 453.04883 C 208.39697 455.19505 208.51608 457.32986 208.69727 459.45117 C 208.87845 461.57249 209.12059 463.68047 209.42578 465.77148 C 209.73097 467.8625 210.0982 469.93687 210.5293 471.99219 C 210.9604 474.04751 211.45476 476.08342 212.01367 478.09766 C 212.57258 480.1119 213.19615 482.1045 213.88477 484.07227 C 214.57338 486.04003 215.32821 487.98253 216.14844 489.89844 C 216.96866 491.81434 217.85486 493.70385 218.80859 495.5625 C 219.9538 497.7943 221.23018 500.06315 222.63086 502.36719 C 224.03154 504.67123 225.55674 507.0113 227.19531 509.38086 C 228.83389 511.75042 230.58641 514.14976 232.44531 516.57812 C 234.30421 519.00649 236.26843 521.46291 238.33008 523.94336 C 242.45338 528.90425 246.96608 533.96289 251.79492 539.0918 C 256.62377 544.2207 261.77026 549.4209 267.16406 554.66406 C 272.55786 559.90723 278.19747 565.19243 284.01562 570.49609 C 289.83378 575.79976 295.82972 581.12123 301.93164 586.43164 C 308.03356 591.74205 314.2432 597.04129 320.48828 602.30469 C 339.22353 618.09489 358.28628 633.55363 375.7793 647.95312 C 387.44131 657.55279 398.40542 666.68295 408.10938 675.12695 C 412.96135 679.34895 417.49687 683.3995 421.64844 687.25195 C 425.80001 691.10441 429.56639 694.75835 432.87695 698.1875 C 436.18752 701.61665 439.04408 704.8194 441.37305 707.77148 C 442.53753 709.24753 443.57017 710.66112 444.46289 712.00781 C 445.35561 713.35451 446.10755 714.63507 446.71094 715.8457 C 447.31432 714.63507 448.06626 713.35451 448.95898 712.00781 C 449.85171 710.66112 450.88435 709.24753 452.04883 707.77148 C 454.37779 704.8194 457.23436 701.61665 460.54492 698.1875 C 463.85549 694.75835 467.62187 691.1044 471.77344 687.25195 C 475.92501 683.3995 480.46052 679.34895 485.3125 675.12695 C 495.01645 666.68295 505.98057 657.55279 517.64258 647.95312 C 535.13559 633.55363 554.19835 618.0949 572.93359 602.30469 C 579.17868 597.04129 585.38832 591.74205 591.49023 586.43164 C 597.59215 581.12123 603.5881 575.79976 609.40625 570.49609 C 615.2244 565.19243 620.86401 559.90723 626.25781 554.66406 C 631.65161 549.4209 636.79811 544.2207 641.62695 539.0918 C 646.4558 533.96289 650.9685 528.90425 655.0918 523.94336 C 657.15345 521.46291 659.11766 519.00649 660.97656 516.57812 C 662.83546 514.14976 664.58799 511.75042 666.22656 509.38086 C 667.86514 507.0113 669.39034 504.67123 670.79102 502.36719 C 672.1917 500.06315 673.46807 497.7943 674.61328 495.5625 C 675.56702 493.70385 676.45321 491.81434 677.27344 489.89844 C 678.09366 487.98253 678.84849 486.04003 679.53711 484.07227 C 680.22572 482.1045 680.8493 480.1119 681.4082 478.09766 C 681.96711 476.08342 682.46148 474.04751 682.89258 471.99219 C 683.32368 469.93687 683.6909 467.8625 683.99609 465.77148 C 684.30129 463.68047 684.54342 461.57249 684.72461 459.45117 C 684.9058 457.32986 685.0249 455.19505 685.08398 453.04883 C 685.14307 450.90261 685.14315 448.74582 685.08203 446.58008 C 685.02091 444.41434 684.90013 442.24042 684.7207 440.06055 C 684.18243 433.52094 683.11565 426.92909 681.54688 420.35938 C 680.50102 415.97956 679.23094 411.60882 677.74609 407.26953 C 676.26125 402.93024 674.56097 398.62282 672.65234 394.36719 C 670.74371 390.11155 668.62776 385.90815 666.31055 381.7793 C 663.99334 377.65044 661.47621 373.59567 658.76562 369.63672 C 656.05504 365.67777 653.15125 361.81428 650.0625 358.06836 C 646.97375 354.32244 643.69975 350.69483 640.24805 347.20508 C 636.79634 343.71532 633.16664 340.3643 629.36719 337.17383 C 627.46746 335.57859 625.52483 334.02404 623.54102 332.51172 C 621.5572 330.99939 619.53279 329.5295 617.4668 328.10547 C 615.4008 326.68144 613.29277 325.30299 611.14648 323.97266 C 609.0002 322.64232 606.81451 321.36016 604.58984 320.12891 C 602.36518 318.89765 600.10193 317.71663 597.80078 316.58984 C 595.49963 315.46306 593.16089 314.38997 590.78516 313.37305 C 587.50338 311.96827 584.15264 310.73815 580.73828 309.68359 C 577.32392 308.62903 573.84593 307.75049 570.3125 307.04883 C 566.77907 306.34717 563.18976 305.82264 559.55078 305.47656 C 555.91181 305.13049 552.22319 304.96242 548.49219 304.97461 C 544.56406 304.06878 540.57769 303.6131 536.56836 303.57422 z "
       transform="scale(0.26458333)"
       inkscape:export-filename="/Users/ksergi/Desktop/round heart.png"
       inkscape:export-xdpi="96"
       inkscape:export-ydpi="96" />
  </g>
</svg>
